<svg width="23" height="23" viewBox="0 0 23 23" fill="none" xmlns="http://www.w3.org/2000/svg">
<path d="M11.5 23C5.14805 23 0 17.852 0 11.5C0 5.14805 5.14805 0 11.5 0C17.852 0 23 5.14805 23 11.5C23 17.852 17.852 23 11.5 23ZM10.4219 11.5C10.4219 11.8594 10.6016 12.1963 10.9025 12.358L15.215 15.233C15.7092 15.6014 16.3785 15.4666 16.6705 14.9725C17.0389 14.4783 16.9041 13.809 16.41 13.4766L12.5781 10.925V5.39062C12.5781 4.79316 12.0975 4.3125 11.4596 4.3125C10.9025 4.3125 10.3814 4.79316 10.3814 5.39062L10.4219 11.5Z" fill="#545454"/>
</svg>
